<?xml version="1.0"?>
<svg xmlns="http://www.w3.org/2000/svg" xmlns:xlink="http://www.w3.org/1999/xlink" version="1.1" viewBox="0 0 512 512" enable-background="new 0 0 512 512" width="512px" height="512px"><g><g>
    <g>
      <path d="m496.7,126.8c0-63.6-52.1-115.7-115.7-115.7-49.3,0-91.7,31.3-108.2,75h-176.2v-58.3h-20.9v58.4h-60.4v414.7h438.7v-284.6c26-21.2 42.7-53.5 42.7-89.5zm-115.7-94.8c53.1,0 95.9,41.7 94.8,94.8 0,52.1-42.7,94.8-94.8,94.8s-94.8-42.7-94.8-94.8c0-52.1 42.7-94.8 94.8-94.8zm-113.9,75c-1.1,6.4-1.7,13.1-1.7,19.8 0,25.7 8.5,49.5 22.9,68.8h-253.2v-88.6h232zm166,373h-398v-263.6h273v-0.1c19.9,16.3 45.4,26.1 72.9,26.1 18.7,0 36.4-4.5 52.1-12.5v250.1z" data-original="#000000" class="active-path" data-old_color="#000000" fill="#FF0000"/>
      <polygon points="435.2,148.7 391.5,120.5 391.5,41.3 371.7,41.3 371.7,132 423.8,166.4   " data-original="#000000" class="active-path" data-old_color="#000000" fill="#FF0000"/>
      <polygon points="135.1,299.8 161.2,299.8 161.2,412.3 191.4,412.3 191.4,273.7 135.1,273.7   " data-original="#000000" class="active-path" data-old_color="#000000" fill="#FF0000"/>
      <path d="m276.8,269.5c-18.8,0-33.3,6.3-42.7,19.8-9.4,12.5-14.6,30.2-14.6,52.1 0,21.9 5.2,38.6 14.6,52.1s24,19.8 42.7,19.8c19.8,0 33.3-6.3 42.7-19.8 9.4-12.5 14.6-30.2 14.6-52.1 0-21.9-5.2-38.6-14.6-52.1-9.3-13.5-23.9-19.8-42.7-19.8zm21.9,105.3c-5.2,8.3-11.5,12.5-20.8,12.5-9.4,0-16.7-4.2-20.8-12.5-4.2-8.3-6.3-19.8-6.3-33.3 0-13.5 2.1-25 6.3-33.3s10.4-12.5 20.8-12.5c9.4,0 16.7,4.2 20.8,12.5 4.2,8.3 6.3,19.8 6.3,33.3 0,13.5-2.1,25-6.3,33.3z" data-original="#000000" class="active-path" data-old_color="#000000" fill="#FF0000"/>
    </g>
  </g></g> </svg>
