<?xml version="1.0" encoding="UTF-8"?>
<!DOCTYPE svg PUBLIC "-//W3C//DTD SVG 1.1//EN" "http://www.w3.org/Graphics/SVG/1.1/DTD/svg11.dtd">
<svg xmlns="http://www.w3.org/2000/svg" version="1.1" width="256px" height="256px" style="shape-rendering:geometricPrecision; text-rendering:geometricPrecision; image-rendering:optimizeQuality; fill-rule:evenodd; clip-rule:evenodd" xmlns:xlink="http://www.w3.org/1999/xlink">
<g><path style="opacity:0.889" fill="#fe0000" d="M 112.5,-0.5 C 122.5,-0.5 132.5,-0.5 142.5,-0.5C 142.783,0.28913 143.283,0.955796 144,1.5C 144.667,6.83333 144.667,12.1667 144,17.5C 141.667,20.1667 139.333,20.1667 137,17.5C 136.502,14.1832 136.335,10.8499 136.5,7.5C 130.5,7.5 124.5,7.5 118.5,7.5C 118.667,19.8378 118.5,32.1712 118,44.5C 117.626,45.4162 117.126,46.2496 116.5,47C 111.833,47.3333 107.167,47.6667 102.5,48C 110.487,58.1519 118.821,67.9852 127.5,77.5C 136.179,67.9852 144.513,58.1519 152.5,48C 147.582,47.8052 142.749,47.3052 138,46.5C 136.219,40.8958 136.053,35.2291 137.5,29.5C 139.695,28.2309 141.861,28.2309 144,29.5C 144.498,32.8168 144.665,36.1501 144.5,39.5C 150.176,39.3339 155.843,39.5006 161.5,40C 163.625,41.7373 164.458,43.904 164,46.5C 153.592,60.9121 142.425,74.7454 130.5,88C 128.5,88.6667 126.5,88.6667 124.5,88C 112.575,74.7454 101.408,60.9121 91,46.5C 90.542,43.904 91.3754,41.7373 93.5,40C 99.1569,39.5006 104.824,39.3339 110.5,39.5C 110.333,26.8289 110.5,14.1623 111,1.5C 111.717,0.955796 112.217,0.28913 112.5,-0.5 Z"/></g>
<g><path style="opacity:0.859" fill="#fe0000" d="M 84.5,82.5 C 92.84,82.3336 101.173,82.5003 109.5,83C 110.126,83.7504 110.626,84.5838 111,85.5C 111.667,113.5 111.667,141.5 111,169.5C 110.626,170.416 110.126,171.25 109.5,172C 101.167,172.667 92.8333,172.667 84.5,172C 81.8333,169.667 81.8333,167.333 84.5,165C 90.4908,164.501 96.4908,164.334 102.5,164.5C 102.5,139.833 102.5,115.167 102.5,90.5C 96.4908,90.6662 90.4908,90.4995 84.5,90C 81.9142,87.506 81.9142,85.006 84.5,82.5 Z"/></g>
<g><path style="opacity:0.859" fill="#fe0000" d="M 145.5,82.5 C 153.84,82.3336 162.173,82.5003 170.5,83C 173.167,85.3333 173.167,87.6667 170.5,90C 164.509,90.4995 158.509,90.6662 152.5,90.5C 152.5,115.167 152.5,139.833 152.5,164.5C 158.509,164.334 164.509,164.501 170.5,165C 173.167,167.333 173.167,169.667 170.5,172C 162.167,172.667 153.833,172.667 145.5,172C 144.874,171.25 144.374,170.416 144,169.5C 143.333,141.5 143.333,113.5 144,85.5C 144.513,84.4734 145.013,83.4734 145.5,82.5 Z"/></g>
<g><path style="opacity:0.888" fill="#fe0000" d="M -0.5,142.5 C -0.5,132.5 -0.5,122.5 -0.5,112.5C 0.28913,112.217 0.955796,111.717 1.5,111C 14.1623,110.5 26.8289,110.333 39.5,110.5C 39.3339,104.824 39.5006,99.1569 40,93.5C 41.7373,91.3754 43.904,90.542 46.5,91C 60.9121,101.408 74.7454,112.575 88,124.5C 88.6667,126.5 88.6667,128.5 88,130.5C 74.7915,142.044 61.2915,153.211 47.5,164C 44.5027,164.755 42.0027,163.922 40,161.5C 39.5006,155.843 39.3339,150.176 39.5,144.5C 33.1152,145.786 31.1152,143.453 33.5,137.5C 37.9017,136.074 42.235,136.241 46.5,138C 47.3052,142.749 47.8052,147.582 48,152.5C 58.1519,144.513 67.9852,136.179 77.5,127.5C 67.9852,118.821 58.1519,110.487 48,102.5C 47.6667,107.167 47.3333,111.833 47,116.5C 46.2496,117.126 45.4162,117.626 44.5,118C 32.1712,118.5 19.8378,118.667 7.5,118.5C 7.5,124.5 7.5,130.5 7.5,136.5C 12.1785,136.334 16.8452,136.501 21.5,137C 24.1667,139.333 24.1667,141.667 21.5,144C 14.8333,144.667 8.16667,144.667 1.5,144C 0.955796,143.283 0.28913,142.783 -0.5,142.5 Z"/></g>
<g><path style="opacity:0.896" fill="#fe0000" d="M 255.5,112.5 C 255.5,122.5 255.5,132.5 255.5,142.5C 254.711,142.783 254.044,143.283 253.5,144C 240.838,144.5 228.171,144.667 215.5,144.5C 215.666,150.176 215.499,155.843 215,161.5C 212.997,163.922 210.497,164.755 207.5,164C 193.709,153.211 180.209,142.044 167,130.5C 166.333,128.5 166.333,126.5 167,124.5C 180.255,112.575 194.088,101.408 208.5,91C 211.096,90.542 213.263,91.3754 215,93.5C 215.499,99.1569 215.666,104.824 215.5,110.5C 228.171,110.333 240.838,110.5 253.5,111C 254.044,111.717 254.711,112.217 255.5,112.5 Z M 206.5,102.5 C 207.326,106.982 207.826,111.649 208,116.5C 208.75,117.126 209.584,117.626 210.5,118C 222.829,118.5 235.162,118.667 247.5,118.5C 247.5,124.5 247.5,130.5 247.5,136.5C 235.162,136.333 222.829,136.5 210.5,137C 209.584,137.374 208.75,137.874 208,138.5C 207.667,143.167 207.333,147.833 207,152.5C 198.456,144.954 189.623,137.788 180.5,131C 178.671,129.887 177.837,128.387 178,126.5C 187.664,118.601 197.164,110.601 206.5,102.5 Z"/></g>
<g><path style="opacity:0.896" fill="#fe0000" d="M 142.5,255.5 C 132.5,255.5 122.5,255.5 112.5,255.5C 112.217,254.711 111.717,254.044 111,253.5C 110.5,240.838 110.333,228.171 110.5,215.5C 104.824,215.666 99.1569,215.499 93.5,215C 89.6891,211.727 89.5225,208.227 93,204.5C 103.5,192 114,179.5 124.5,167C 126.5,166.333 128.5,166.333 130.5,167C 135,172.167 139.5,177.333 144,182.5C 145.833,188.667 143.667,190.833 137.5,189C 135.333,186.167 133.167,183.333 131,180.5C 129.887,178.671 128.387,177.837 126.5,178C 118.5,187.667 110.5,197.333 102.5,207C 107.167,207.333 111.833,207.667 116.5,208C 117.126,208.75 117.626,209.584 118,210.5C 118.5,222.829 118.667,235.162 118.5,247.5C 124.5,247.5 130.5,247.5 136.5,247.5C 136.038,234.401 136.538,221.401 138,208.5C 142.749,207.695 147.582,207.195 152.5,207C 148.529,204.112 147.196,200.445 148.5,196C 151.956,194.877 154.79,195.71 157,198.5C 160.302,201.804 162.802,205.637 164.5,210C 164.01,211.982 163.01,213.649 161.5,215C 155.843,215.499 150.176,215.666 144.5,215.5C 144.667,228.171 144.5,240.838 144,253.5C 143.283,254.044 142.783,254.711 142.5,255.5 Z"/></g>
</svg>
