<?xml version="1.0" encoding="iso-8859-1"?>
<!-- Generator: Adobe Illustrator 19.0.0, SVG Export Plug-In . SVG Version: 6.00 Build 0)  -->
<svg version="1.1" id="Capa_1" xmlns="http://www.w3.org/2000/svg" xmlns:xlink="http://www.w3.org/1999/xlink" x="0px" y="0px"
	 viewBox="0 0 469.333 469.333" style="enable-background:new 0 0 469.333 469.333;" xml:space="preserve">
<g>
	<g>
		<path d="M457.896,115.562L244.562,3.812c-3.104-1.625-6.5-2.438-9.896-2.438s-6.792,0.813-9.896,2.438L11.437,115.562
			C4.396,119.24,0,126.521,0,134.458v200.417c0,7.938,4.396,15.219,11.438,18.896l213.333,111.75c3.104,1.625,6.5,2.438,9.896,2.438
			s6.792-0.813,9.896-2.438l213.333-111.75c7.042-3.677,11.438-10.958,11.438-18.896V134.458
			C469.333,126.521,464.938,119.24,457.896,115.562z M42.667,147.365l170.667-89.398v136.846l-26.19-13.095l3.336-5.561
			c2.229-3.698,2-8.375-0.583-11.844c-2.563-3.458-7-5.094-11.146-3.99l-42.667,10.667c-5.729,1.427-9.188,7.219-7.771,12.927
			l10.667,42.667c1.063,4.188,4.521,7.333,8.792,7.969c0.521,0.073,1.042,0.115,1.563,0.115c3.708,0,7.208-1.938,9.146-5.177
			l6.645-11.074l21.835,10.918L42.667,301.479V147.365z M234.667,422.542L69.253,335.895l144.081-72.04V288h-10.667
			c-4.313,0-8.208,2.594-9.854,6.583c-1.646,3.99-0.729,8.573,2.313,11.625l32,32c2.083,2.083,4.813,3.125,7.542,3.125
			s5.458-1.042,7.542-3.125l32-32c3.042-3.052,3.958-7.635,2.313-11.625c-1.646-3.99-5.542-6.583-9.854-6.583H256v-24.146
			l144.081,72.04L234.667,422.542z M426.667,301.479l-144.292-72.146l21.835-10.918l6.645,11.074
			c1.938,3.24,5.438,5.177,9.146,5.177c0.521,0,1.042-0.042,1.563-0.115c4.271-0.635,7.729-3.781,8.792-7.969l10.667-42.667
			c1.417-5.708-2.042-11.5-7.771-12.927l-42.667-10.667c-4.146-1.104-8.583,0.531-11.146,3.99
			c-2.583,3.469-2.813,8.146-0.583,11.844l3.336,5.561L256,194.812V57.966l170.667,89.398V301.479z"/>
	</g>
</g>
<g>
</g>
<g>
</g>
<g>
</g>
<g>
</g>
<g>
</g>
<g>
</g>
<g>
</g>
<g>
</g>
<g>
</g>
<g>
</g>
<g>
</g>
<g>
</g>
<g>
</g>
<g>
</g>
<g>
</g>
</svg>
