<?xml version="1.0"?>
<svg xmlns="http://www.w3.org/2000/svg" xmlns:xlink="http://www.w3.org/1999/xlink" version="1.1" id="Capa_1" x="0px" y="0px" viewBox="0 0 422.312 422.312" style="enable-background:new 0 0 422.312 422.312;" xml:space="preserve" width="512px" height="512px"><g><g>
	<g>
		<path d="M422.312,211.314c0.038-40.258-11.5-79.677-33.24-113.56c-0.36-0.72-0.56-1.16-0.6-1.2c-0.178-0.245-0.379-0.473-0.6-0.68    c-49.589-76.061-142.264-111.888-230.12-88.96c-18.171,4.766-35.621,11.95-51.88,21.36c-32.44-9.96-57.08-7.76-71.36,6.52    c-14.28,14.28-16,40-6.52,71.4c-57.978,101.136-22.991,230.124,78.146,288.102c65.086,37.311,145.085,37.272,210.135-0.102    c11.52,3.759,23.526,5.82,35.64,6.12c14.92,0,27.12-4,35.68-12.64c14.24-14.24,16.48-38.92,6.52-71.36    C412.573,284.399,422.3,248.184,422.312,211.314z M155.232,23.674c0.959-3.066,3.047-5.654,5.84-7.24    c84.05-21.541,172.438,13.259,219.24,86.32l-0.12-0.08c2.4,5.16,10.04,25.92-13.8,42.52c-19.16,13.36-29.2,26.68-30.68,40.76    c-1.36,13,4.4,26.2,17.64,40.36c15.172,17.594,21.107,41.337,16,64c-3.76,15.52-13.12,26.68-26.28,31.4    c-13.16,4.72-47.76,18.92-68.76,43.24c-38.52-20.8-82-53.44-122.88-94.36c-20.616-20.515-39.77-42.448-57.32-65.64    c4.96-33.16,25.52-38.84,48.96-45.28c16-4.36,32-8.76,43.44-22.08c21.8-25.56,9.56-40-4.6-56.64    c-7.307-8.141-13.792-16.984-19.36-26.4C153.392,38.274,153.512,28.794,155.232,23.674z M145.552,21.154    c-3.12,10.16-0.4,23,8.24,38.32c5.865,9.99,12.712,19.37,20.44,28c14.32,16.88,20.84,24.56,4.64,43.6    c-9.36,10.96-23.4,14.8-38.28,18.88c-21.72,5.96-45.92,12.64-54.44,44c-22.28-31.12-38.52-61.16-47.08-86.64    C63.461,67.081,101.116,36.612,145.552,21.154z M41.632,41.874h-0.08c10.12-10.12,28.56-12.32,52.6-6.44    c-23.398,15.586-43.478,35.653-59.08,59.04C29.392,71.114,31.072,52.514,41.632,41.874z M9.992,211.314    c-0.038-32.116,7.659-63.768,22.44-92.28c12.98,31.85,30.202,61.801,51.2,89.04c0,0.76-0.2,1.44-0.28,2.24    c-5.36,64.24-18.68,73-21.32,73.88c-0.76,0.32-2.76,1.16-6.2-1.84s-5.32-15.76-6.96-26.16c-3.08-19.44-6.24-39.52-19.28-44.4    c-5.68-2.12-12-1-19.6,3.52C9.992,213.994,9.992,212.674,9.992,211.314z M15.491,257.548c-2.35-9.984-3.932-20.134-4.733-30.36    c6.601-5.065,11.863-7.103,15.313-5.795c7.56,2.84,10.52,21.56,12.88,36.56s4.24,26.96,10.32,32.2    c3.044,2.858,7.026,4.508,11.2,4.64c1.853-0.005,3.687-0.372,5.4-1.08c16.16-6.8,23.44-42.4,26.68-73.96    c16.161,20.429,33.525,39.877,52,58.24c41.8,41.8,84.92,74.44,123.72,95.52c-6.843,9.906-10.702,21.567-11.12,33.6    C149.118,432.546,40.923,365.583,15.491,257.548z M267.072,404.434c0.929-9.45,4.307-18.494,9.8-26.24    c8.587,4.383,17.399,8.308,26.4,11.76C291.706,395.948,279.582,400.798,267.072,404.434z M315.072,383.314    c-10.842-3.749-21.414-8.24-31.64-13.44c19.64-21.28,50.56-33.96,63.12-38.56c16.48-5.88,28-19.56,32.68-38.52    c6.08-25.12-1.48-55.28-18.44-73.4c-11.12-12-16-22.48-15-32.44c1.16-11,9.8-21.96,26.44-33.56    c10.403-6.459,17.758-16.844,20.4-28.8C437.206,217.944,403.649,329.881,315.072,383.314z M380.512,380.754h-0.16    c-10.64,10.64-29.2,12.28-52.6,6.4c23.481-15.55,43.643-35.604,59.32-59C392.792,352.154,390.592,370.634,380.512,380.754z" data-original="#000000" class="active-path" data-old_color="#000000" fill="#FF0000"/>
	</g>
</g></g> </svg>
