<?xml version="1.0"?>
<svg xmlns="http://www.w3.org/2000/svg" xmlns:xlink="http://www.w3.org/1999/xlink" version="1.1" id="Capa_1" x="0px" y="0px" width="512px" height="512px" viewBox="0 0 547.887 547.887" style="enable-background:new 0 0 547.887 547.887;" xml:space="preserve"><g><g>
	<g>
		<path d="M218.808,447.506c0,11.279,9.144,20.417,20.423,20.417h69.425c11.279,0,20.422-9.144,20.422-20.417V329.078h118.429    c11.279,0,20.416-9.144,20.416-20.416V239.23c0-11.279-9.144-20.417-20.416-20.417H329.078V100.38    c0-11.279-9.143-20.417-20.422-20.417H239.23c-11.279,0-20.422,9.144-20.422,20.417v118.434H100.38    c-11.279,0-20.417,9.144-20.417,20.417v69.425c0,11.279,9.143,20.417,20.417,20.417h118.434v118.434H218.808z M388.748,244.188    l52.412,29.67l-52.412,29.67V244.188z M273.943,106.635l29.67,52.417H244.28L273.943,106.635z M303.613,388.662l-29.67,52.412    l-29.67-52.418h59.34V388.662z M159.138,303.527l-52.412-29.67l52.412-29.67V303.527L159.138,303.527z" data-original="#000000" class="active-path" data-old_color="#000000" fill="#FF0000"/>
		<path d="M273.943,547.881c151.054,0,273.943-122.89,273.943-273.944c0-151.053-122.89-273.931-273.943-273.931    S0,122.889,0,273.943C0,424.997,122.89,547.881,273.943,547.881z M273.943,36.726c130.803,0,237.224,106.415,237.224,237.218    c0,130.803-106.421,237.217-237.224,237.217S36.72,404.746,36.72,273.943C36.72,143.14,143.141,36.726,273.943,36.726z" data-original="#000000" class="active-path" data-old_color="#000000" fill="#FF0000"/>
	</g>
</g></g> </svg>
