<?xml version="1.0" encoding="iso-8859-1"?>
<!-- Generator: Adobe Illustrator 18.1.1, SVG Export Plug-In . SVG Version: 6.00 Build 0)  -->
<svg version="1.1" id="Capa_1" xmlns="http://www.w3.org/2000/svg" xmlns:xlink="http://www.w3.org/1999/xlink" x="0px" y="0px"
	 viewBox="0 0 58.14 58.14" style="enable-background:new 0 0 58.14 58.14;" xml:space="preserve">
<g>
	<path style="fill:#010002;" d="M13.759,38.588c0.344,0.321,0.886,0.304,1.207-0.04l0.368-0.393
		c0.321-0.344,0.303-0.887-0.041-1.208l-1.144-1.069c-0.345-0.322-0.887-0.303-1.208,0.041l-0.368,0.394
		c-0.321,0.344-0.304,0.885,0.041,1.207C12.614,37.52,13.759,38.588,13.759,38.588z M13.009,36.718l0.368-0.394
		c0.098-0.104,0.261-0.109,0.365-0.012l1.145,1.07c0.104,0.097,0.11,0.261,0.013,0.364l-0.368,0.395
		c-0.097,0.104-0.261,0.108-0.364,0.011l-1.145-1.069C12.917,36.985,12.912,36.821,13.009,36.718z M17.428,42.018
		c0.344,0.321,0.886,0.304,1.208-0.041l0.368-0.393c0.32-0.343,0.303-0.886-0.042-1.207l-1.145-1.07
		c-0.344-0.321-0.886-0.303-1.206,0.041l-0.368,0.394c-0.322,0.345-0.304,0.886,0.04,1.207L17.428,42.018z M16.678,40.148
		l0.368-0.395c0.097-0.104,0.261-0.109,0.364-0.012l1.146,1.07c0.104,0.097,0.109,0.262,0.013,0.364l-0.368,0.395
		c-0.097,0.104-0.261,0.108-0.365,0.012l-1.145-1.07C16.587,40.414,16.582,40.251,16.678,40.148z M21.487,42.735
		c-0.344-0.321-0.886-0.303-1.206,0.041l-0.368,0.394c-0.322,0.345-0.304,0.886,0.04,1.207l1.145,1.07
		c0.345,0.321,0.886,0.304,1.208-0.041l0.368-0.394c0.321-0.343,0.303-0.886-0.041-1.207C22.633,43.805,21.487,42.735,21.487,42.735
		z M22.239,44.606L21.871,45c-0.098,0.104-0.262,0.108-0.365,0.012l-1.145-1.07c-0.104-0.098-0.109-0.261-0.012-0.365l0.368-0.394
		c0.097-0.104,0.26-0.109,0.364-0.012l1.145,1.07C22.33,44.338,22.336,44.502,22.239,44.606z M10.857,41.693
		c0.344,0.321,0.886,0.304,1.207-0.041l0.368-0.393c0.321-0.344,0.304-0.886-0.041-1.208l-1.144-1.069
		c-0.345-0.322-0.887-0.303-1.208,0.041l-0.368,0.394c-0.321,0.344-0.303,0.885,0.041,1.207L10.857,41.693z M10.107,39.823
		l0.368-0.394c0.097-0.104,0.26-0.11,0.364-0.012l1.144,1.069c0.104,0.098,0.11,0.261,0.014,0.365l-0.368,0.394
		c-0.097,0.104-0.262,0.109-0.365,0.012l-1.145-1.069C10.015,40.09,10.01,39.927,10.107,39.823z M14.916,42.41
		c-0.344-0.321-0.886-0.302-1.206,0.041l-0.368,0.394c-0.322,0.345-0.304,0.886,0.04,1.208l1.145,1.069
		c0.345,0.322,0.886,0.305,1.208-0.04l0.368-0.395c0.321-0.343,0.303-0.885-0.041-1.207C16.062,43.48,14.916,42.41,14.916,42.41z
		 M15.668,44.281L15.3,44.675c-0.098,0.104-0.262,0.109-0.365,0.012l-1.146-1.07c-0.104-0.098-0.109-0.26-0.012-0.364l0.367-0.394
		c0.098-0.104,0.261-0.11,0.365-0.013l1.145,1.07C15.758,44.014,15.764,44.178,15.668,44.281z M18.585,45.84
		c-0.344-0.321-0.885-0.302-1.206,0.041l-0.368,0.394c-0.322,0.345-0.304,0.886,0.04,1.207l1.146,1.07
		c0.344,0.321,0.886,0.304,1.207-0.04l0.368-0.395c0.321-0.343,0.303-0.885-0.041-1.207C19.731,46.91,18.585,45.84,18.585,45.84z
		 M19.337,47.711l-0.368,0.394c-0.098,0.104-0.261,0.109-0.365,0.012l-1.146-1.07c-0.104-0.098-0.109-0.26-0.012-0.364l0.368-0.394
		c0.097-0.104,0.26-0.11,0.364-0.013l1.144,1.07C19.427,47.443,19.433,47.608,19.337,47.711z M8.345,42.087
		C8,41.765,7.458,41.783,7.137,42.127l-0.368,0.395c-0.321,0.344-0.303,0.885,0.042,1.207l1.144,1.069
		c0.345,0.321,0.886,0.304,1.207-0.04l0.368-0.394c0.322-0.345,0.304-0.887-0.04-1.208L8.345,42.087z M9.095,43.957l-0.368,0.394
		c-0.097,0.104-0.261,0.109-0.365,0.012l-1.145-1.069c-0.104-0.098-0.109-0.262-0.013-0.365l0.368-0.394
		c0.097-0.104,0.26-0.109,0.365-0.012l1.144,1.069C9.186,43.69,9.193,43.853,9.095,43.957z M12.013,45.516
		c-0.344-0.321-0.885-0.303-1.206,0.041l-0.368,0.394c-0.322,0.345-0.304,0.886,0.04,1.207l1.145,1.07
		c0.344,0.321,0.886,0.304,1.207-0.041l0.368-0.394c0.321-0.344,0.303-0.886-0.041-1.207L12.013,45.516z M12.765,47.386
		l-0.368,0.394c-0.098,0.104-0.261,0.109-0.365,0.012l-1.146-1.07c-0.104-0.097-0.109-0.26-0.012-0.364l0.368-0.394
		c0.097-0.104,0.26-0.109,0.364-0.012l1.144,1.069C12.856,47.118,12.862,47.282,12.765,47.386z M15.683,48.945
		c-0.344-0.321-0.886-0.303-1.207,0.04l-0.368,0.395c-0.321,0.345-0.304,0.886,0.04,1.207l1.146,1.07
		c0.344,0.321,0.886,0.304,1.208-0.041l0.368-0.394c0.32-0.344,0.302-0.886-0.042-1.207L15.683,48.945z M16.434,50.816l-0.368,0.394
		c-0.098,0.104-0.261,0.109-0.365,0.012l-1.145-1.07c-0.104-0.097-0.11-0.26-0.013-0.364l0.368-0.394
		c0.097-0.104,0.26-0.109,0.364-0.013l1.145,1.07C16.525,50.548,16.531,50.712,16.434,50.816z M27.084,20.485
		c-2.006-1.875-5.176-1.756-7.064,0.265L1.359,40.713c-1.89,2.021-1.795,5.192,0.211,7.067l9.658,9.028
		c2.007,1.875,5.177,1.756,7.066-0.267l18.66-19.963c1.889-2.021,1.794-5.191-0.213-7.066
		C36.741,29.512,27.084,20.485,27.084,20.485z M35.437,35.16l-18.66,19.964c-1.107,1.185-2.961,1.26-4.13,0.167l-9.658-9.028
		c-1.17-1.093-1.22-2.947-0.112-4.132l18.66-19.963c1.107-1.185,2.96-1.26,4.129-0.167l9.659,9.028
		C36.494,32.122,36.545,33.976,35.437,35.16z M36.503,21.572c-2.146-2.005-4.655-3.429-7.46-4.231
		c-0.161-0.046-0.33-0.026-0.476,0.056c-0.147,0.082-0.253,0.215-0.297,0.373c-0.066,0.227,0.001,0.468,0.174,0.63
		c0.071,0.066,0.159,0.116,0.253,0.143c2.614,0.748,4.953,2.074,6.952,3.943c1.582,1.479,2.851,3.211,3.769,5.149
		c0.033,0.071,0.08,0.135,0.138,0.189c0.188,0.176,0.461,0.219,0.692,0.108c0.071-0.032,0.136-0.079,0.191-0.139
		c0.176-0.189,0.219-0.461,0.107-0.694C39.562,25.021,38.201,23.16,36.503,21.572z M42.543,15.11
		c-3.871-3.618-8.663-6.01-13.859-6.915c-0.34-0.059-0.664,0.169-0.723,0.509c-0.037,0.208,0.033,0.419,0.188,0.564
		c0.089,0.083,0.199,0.138,0.318,0.159c4.957,0.863,9.529,3.146,13.222,6.597c3.429,3.204,5.921,7.268,7.208,11.752
		c0.031,0.109,0.092,0.207,0.174,0.284c0.16,0.149,0.39,0.204,0.598,0.144c0.109-0.03,0.208-0.09,0.286-0.174
		c0.151-0.162,0.205-0.386,0.145-0.599C48.749,22.729,46.135,18.468,42.543,15.11z M27.493,0.003
		c-0.342-0.033-0.65,0.218-0.685,0.561c-0.02,0.194,0.053,0.384,0.195,0.518c0.101,0.094,0.227,0.151,0.365,0.166
		c7.444,0.738,14.276,3.837,19.757,8.96c4.84,4.523,8.222,10.304,9.781,16.716c0.028,0.119,0.091,0.226,0.181,0.31
		c0.153,0.144,0.368,0.2,0.574,0.15c0.119-0.029,0.226-0.091,0.309-0.181c0.144-0.154,0.201-0.369,0.15-0.574
		c-1.616-6.649-5.123-12.644-10.142-17.334C42.297,3.983,35.213,0.771,27.493,0.003z M24.063,31.344
		c-0.625,0.668-0.589,1.72,0.079,2.344c0.667,0.624,1.719,0.589,2.344-0.079c0.624-0.668,0.588-1.72-0.08-2.344
		C25.739,30.641,24.687,30.676,24.063,31.344z M25.937,33.096c-0.342,0.366-0.917,0.386-1.283,0.044
		c-0.366-0.343-0.386-0.918-0.043-1.284c0.342-0.366,0.917-0.385,1.283-0.043C26.26,32.154,26.28,32.731,25.937,33.096z
		 M23.025,30.536c0.097,0.088,0.218,0.132,0.339,0.132c0.135,0,0.27-0.055,0.368-0.161c0.187-0.203,0.174-0.519-0.029-0.707
		l-3.007-2.767c-0.203-0.186-0.52-0.172-0.707,0.029c-0.187,0.203-0.174,0.52,0.029,0.707L23.025,30.536z M27.987,34.098
		c-0.203-0.185-0.52-0.172-0.707,0.029c-0.187,0.203-0.174,0.52,0.029,0.707l3.007,2.767c0.097,0.088,0.218,0.132,0.339,0.132
		c0.135,0,0.27-0.055,0.368-0.161c0.187-0.203,0.174-0.52-0.029-0.707L27.987,34.098z M27.791,30.673l2.767-3.007
		c0.187-0.203,0.174-0.519-0.029-0.707c-0.203-0.186-0.52-0.172-0.707,0.029l-2.767,3.007c-0.187,0.203-0.174,0.52,0.029,0.707
		c0.097,0.088,0.218,0.132,0.339,0.132C27.557,30.834,27.692,30.779,27.791,30.673z M22.756,34.279l-2.767,3.007
		c-0.186,0.203-0.174,0.52,0.029,0.707c0.097,0.088,0.218,0.132,0.339,0.132c0.135,0,0.27-0.055,0.368-0.161l2.767-3.007
		c0.187-0.203,0.174-0.52-0.029-0.707C23.259,34.065,22.945,34.078,22.756,34.279z"/>
</g>
<g>
</g>
<g>
</g>
<g>
</g>
<g>
</g>
<g>
</g>
<g>
</g>
<g>
</g>
<g>
</g>
<g>
</g>
<g>
</g>
<g>
</g>
<g>
</g>
<g>
</g>
<g>
</g>
<g>
</g>
</svg>
