<?xml version="1.0" encoding="iso-8859-1"?>
<!-- Generator: Adobe Illustrator 19.0.0, SVG Export Plug-In . SVG Version: 6.00 Build 0)  -->
<svg xmlns="http://www.w3.org/2000/svg" xmlns:xlink="http://www.w3.org/1999/xlink" version="1.1" id="Capa_1" x="0px" y="0px" viewBox="0 0 512 512" style="enable-background:new 0 0 512 512;" xml:space="preserve" width="512px" height="512px">
<g>
	<g>
		<path d="M256.006,114.431c-19.254,0.001-36.294,12.263-42.402,30.514l28.449,9.521c2.009-6.002,7.616-10.035,13.954-10.035    c6.331,0,11.936,4.026,13.949,10.02l28.439-9.552C292.274,126.675,275.24,114.431,256.006,114.431z" fill="#D80027"/>
	</g>
</g>
<g>
	<g>
		<path d="M256.017,58.635c-43.112,0-81.266,27.452-94.938,68.311l28.449,9.521c9.574-28.609,36.294-47.832,66.489-47.832    c30.16-0.001,56.87,19.193,66.465,47.76l28.439-9.552C337.217,86.045,299.078,58.635,256.017,58.635z" fill="#D80027"/>
	</g>
</g>
<g>
	<g>
		<path d="M256.025,0c-66.677,0-125.684,42.456-146.832,105.646l28.449,9.521C154.691,64.226,202.265,30,256.025,30    c53.699,0,101.257,34.175,118.341,85.04l28.44-9.552C381.613,42.392,322.626,0,256.025,0z" fill="#D80027"/>
	</g>
</g>
<g>
	<g>
		<path d="M307.749,189.186H204.254c-29.774,0-53.998,24.224-53.998,53.998v214.818c0,29.774,24.224,53.998,53.998,53.998h103.495    c29.774,0,53.998-24.224,53.998-53.998V243.184C361.747,213.41,337.523,189.186,307.749,189.186z M331.747,458.002    c0,13.232-10.766,23.998-23.998,23.998H204.254c-13.232,0-23.998-10.766-23.998-23.998V243.184    c0-13.232,10.766-23.998,23.998-23.998h103.495c13.232,0,23.998,10.766,23.998,23.998V458.002z" fill="#D80027"/>
	</g>
</g>
<g>
	<g>
		<rect x="211.59" y="278.72" width="29.667" height="29.667" fill="#D80027"/>
	</g>
</g>
<g>
	<g>
		<rect x="270.749" y="278.72" width="29.667" height="29.667" fill="#D80027"/>
	</g>
</g>
<g>
	<g>
		<rect x="211.59" y="336.93" width="29.667" height="29.667" fill="#D80027"/>
	</g>
</g>
<g>
	<g>
		<rect x="270.749" y="336.93" width="29.667" height="29.667" fill="#D80027"/>
	</g>
</g>
<g>
	<g>
		<rect x="211.59" y="395.14" width="29.667" height="29.667" fill="#D80027"/>
	</g>
</g>
<g>
	<g>
		<rect x="270.749" y="395.14" width="29.667" height="29.667" fill="#D80027"/>
	</g>
</g>
<g>
</g>
<g>
</g>
<g>
</g>
<g>
</g>
<g>
</g>
<g>
</g>
<g>
</g>
<g>
</g>
<g>
</g>
<g>
</g>
<g>
</g>
<g>
</g>
<g>
</g>
<g>
</g>
<g>
</g>
</svg>
