<?xml version="1.0" encoding="iso-8859-1"?>
<!-- Generator: Adobe Illustrator 19.0.0, SVG Export Plug-In . SVG Version: 6.00 Build 0)  -->
<svg version="1.1" id="Capa_1" xmlns="http://www.w3.org/2000/svg" xmlns:xlink="http://www.w3.org/1999/xlink" x="0px" y="0px"
	 viewBox="0 0 512.001 512.001" style="enable-background:new 0 0 512.001 512.001;" xml:space="preserve">
<g>
	<g>
		<path d="M511.234,236.398h-0.001c-4.489-59.391-29.445-113.916-68.735-155.695c-2.837-3.017-7.584-3.163-10.602-0.325
			c-3.018,2.837-3.163,7.584-0.325,10.602c3.372,3.586,6.582,7.204,9.541,10.751c0.089,0.108,0.18,0.213,0.273,0.317
			c22.721,27.343,39.41,59.62,48.35,95.153c-12.907-16.097-31.234-30.816-54.464-43.465c-16.452-8.957-34.742-16.535-54.398-22.628
			c-12.245-39.503-33.691-82.891-66.109-108.874c8.43,2.122,17.121,4.805,25.321,7.868v0.001
			c21.964,8.053,45.143,20.717,66.175,37.508c3.236,2.585,7.956,2.057,10.54-1.18c2.585-3.236,2.057-7.956-1.18-10.541
			c-1.745-1.393-3.859-3.034-4.687-3.659c-3.857-2.939-8.558-6.273-9.309-6.755l0.044,0.028
			c-26.325-18.269-56.019-31.494-87.24-38.789c-0.052-0.014-0.105-0.027-0.158-0.039c-0.101-0.024-0.2-0.046-0.297-0.066
			c-2.235-0.518-4.621-1.033-7.286-1.573c-0.072-0.014-0.143-0.028-0.215-0.04l-0.469-0.088c-2.155-0.43-4.424-0.846-6.746-1.239
			c-0.061-0.012-0.123-0.023-0.185-0.034l-0.766-0.125c-2.29-0.382-4.658-0.743-6.984-1.065l-0.124-0.017
			c-0.122-0.02-0.243-0.038-0.366-0.052c-0.26-0.031-0.519-0.07-0.779-0.108l-0.68-0.097c-0.097-0.013-0.198-0.024-0.3-0.034
			c-2.416-0.315-4.84-0.597-7.208-0.836c-0.031-0.003-0.063-0.006-0.094-0.009c-0.021-0.002-0.043-0.004-0.066-0.007
			c-0.249-0.025-0.499-0.046-0.75-0.067c-0.173-0.015-0.347-0.028-0.521-0.046c-0.047-0.005-0.095-0.01-0.142-0.014l-0.302-0.022
			c-1.947-0.181-3.899-0.344-5.86-0.484c-0.07-0.005-0.15-0.009-0.234-0.013c-52.485-3.724-106.662,8.697-154.378,38.76
			C-26.704,132.384-40.756,337.646,88.444,449.57c96.207,83.343,239.094,83.141,335.069,0
			C485.735,395.667,517.424,316.229,511.234,236.398z M363.504,126.207c-33.26-8.517-69.784-13.011-107.538-13.011
			c-37.747,0-74.265,4.493-107.52,13.009C199.047-21.031,312.296-22.804,363.504,126.207z M137.338,46.201l-0.001-0.002
			c17.207-9.869,37.733-18.365,59.833-23.948c-32.39,25.971-53.841,69.337-66.09,108.857
			c-39.499,12.244-82.876,33.686-108.858,66.088C38.621,132.188,81.065,78.18,137.338,46.201z M126.176,148.476
			c-8.517,33.255-13.01,69.774-13.01,107.523c0,37.697,4.481,74.169,12.975,107.389C-20.609,312.916-23.529,199.923,126.176,148.476
			z M22.192,314.652c11.506,14.397,27.313,27.71,47.041,39.386c18.166,10.75,39.049,19.754,61.829,26.806
			c12.275,39.623,33.668,82.741,65.815,108.679C112.335,467.79,43.838,400.69,22.192,314.652z M148.434,385.753
			c26.553,6.799,55.245,11.072,84.945,12.506c4.149,0.195,7.653-2.992,7.853-7.129s-2.992-7.653-7.129-7.853
			c-32.646-1.576-63.412-6.68-90.994-14.554c-9.76-34.336-14.941-72.771-14.941-112.725c0-39.995,5.191-78.47,14.971-112.832
			c34.361-9.779,72.835-14.971,112.829-14.971c40,0,78.481,5.192,112.847,14.974c19.964,70.15,19.98,155.445,0.001,225.653
			c-30.715,8.733-64.795,13.839-100.283,14.819c-4.141,0.114-7.405,3.563-7.29,7.704c0.112,4.07,3.447,7.293,7.493,7.293
			c0.07,0,0.14-0.001,0.211-0.003c33.136-0.913,65.149-5.33,94.566-12.862C313.054,532.655,199.775,535.221,148.434,385.753z
			 M315.074,489.524c32.19-25.972,53.561-69.134,65.807-108.655c21.439-6.64,41.219-15.02,58.684-24.993
			c21.213-12.113,38.078-26.049,50.188-41.185C468.099,400.711,399.609,467.795,315.074,489.524z M432.126,342.85
			c-13.981,7.983-29.557,14.896-46.347,20.658c17.341-67.73,17.36-147.223-0.004-215.029
			C510.106,191.21,536.774,283.089,432.126,342.85z"/>
	</g>
</g>
<g>
	<g>
		<path d="M202.096,255.938c3.951-3.221,6.238-9.026,6.238-16.143c0-12.378-7.321-18.922-21.173-18.922
			c-17.409,0-22.054,11.34-22.054,18.041c0,4.766,1.672,6.296,6.883,6.296c5.284,0,6.393-3.104,6.393-5.708
			c0-4.33,2.92-6.525,8.679-6.525c5.809,0,8.287,2.566,8.287,8.581c0,7.749-3.182,9.266-8.679,9.266c-6.45,0-6.551,11.319,0,11.319
			c7.123,0,10.441,2.913,10.441,9.168c0,7.183-0.746,12.496-10.342,12.496c-7.417,0-10.049-3.779-10.049-7.015
			c0-4.772-3.479-5.415-6.883-5.415c-4.472,0-6.295,1.711-6.295,5.904c0,9.305,7.945,18.726,23.13,18.726
			c15.135,0,23.815-8.323,23.815-22.837v-1.861C210.487,264.277,207.599,259.015,202.096,255.938z"/>
	</g>
</g>
<g>
	<g>
		<path d="M241.382,249.453c-4.993,0-9.081,1.192-12.202,3.551c-0.002-10.196-1.552-19.93,10.438-19.93
			c4.792,0,9.951,2.256,9.951,7.21c0,2.023,0.894,5.415,6.883,5.415c1.582,0,6.394,0,6.394-5.904
			c0-9.403-7.911-18.922-23.032-18.922c-15.421,0-23.913,8.284-23.913,23.326v28.481c0,15.043,8.353,23.326,23.522,23.326
			c15.105,0,23.424-8.284,23.424-23.326v-1.762C262.848,256.875,255.425,249.453,241.382,249.453z M239.422,284.394
			c-6.893,0-10.244-3.639-10.244-11.125v-2.545c0-6.789,3.224-9.951,10.146-9.951c7.017,0,10.146,3.34,10.146,10.832
			C249.471,279.164,247.864,284.394,239.422,284.394z"/>
	</g>
</g>
<g>
	<g>
		<path d="M291.978,220.874c-15.105,0-23.424,8.284-23.424,23.326v28.481c0,15.042,8.318,23.326,23.424,23.326
			c14.948,0,23.522-8.501,23.522-23.326V244.2C315.5,229.376,306.926,220.874,291.978,220.874z M302.125,272.682
			c0,7.382-3.414,11.126-10.146,11.126c-6.762,0-10.049-3.639-10.049-11.126v-28.481c0-7.486,3.287-11.125,10.049-11.125
			c6.733,0,10.146,3.743,10.146,11.125V272.682z"/>
	</g>
</g>
<g>
	<g>
		<path d="M334.893,210.936c-7.298,0-13.464,5.755-13.464,12.568v3.689c0,6.751,6.292,12.673,13.464,12.673
			c7.2,0,13.518-5.922,13.518-12.673v-3.689C348.411,216.692,342.221,210.936,334.893,210.936z M337.241,227.194
			c0,1.339-1.119,2.558-2.348,2.558c-1.201,0-2.294-1.219-2.294-2.558v-3.689c0-1.134,1.002-2.453,2.294-2.453
			c1.322,0,2.348,1.318,2.348,2.453V227.194z"/>
	</g>
</g>
<g>
</g>
<g>
</g>
<g>
</g>
<g>
</g>
<g>
</g>
<g>
</g>
<g>
</g>
<g>
</g>
<g>
</g>
<g>
</g>
<g>
</g>
<g>
</g>
<g>
</g>
<g>
</g>
<g>
</g>
</svg>
