<?xml version="1.0"?>
<svg xmlns="http://www.w3.org/2000/svg" height="512px" viewBox="-46 0 512 512" width="512px" class=""><g><path d="m360 393.199219v-32.199219h-30v32.199219c-9.300781 1.488281-18.117188 4.363281-26.039062 8.484375l-137.46875-105.988282c8.804687-11.753906 13.507812-25.375 13.507812-39.695312s-4.703125-27.941406-13.507812-39.695312l137.46875-105.988282c7.921874 4.121094 16.742187 6.996094 26.039062 8.484375v32.199219h30v-32.199219c37.640625-6.035156 60-32.328125 60-58.800781 0-31.007812-30.539062-60-75-60-44.902344 0-75 29.308594-75 60 0 10.855469 3.691406 21.425781 10.410156 30.59375l-136.53125 105.265625c-15.46875-9.625-34.222656-14.859375-53.878906-14.859375-46.78125 0-90 30.929688-90 75 0 44.253906 43.441406 75 90 75 19.65625 0 38.410156-5.234375 53.878906-14.859375l136.53125 105.265625c-6.71875 9.167969-10.410156 19.738281-10.410156 30.59375 0 31.007812 30.539062 60 75 60 44.902344 0 75-29.308594 75-60 0-26.589844-22.523438-52.792969-60-58.800781zm-15-363.199219c24.394531 0 45 13.738281 45 30s-20.605469 30-45 30-45-13.738281-45-30 20.605469-30 45-30zm-315 226c0-24.8125 26.914062-45 60-45s60 20.1875 60 45-26.914062 45-60 45-60-20.1875-60-45zm315 226c-24.394531 0-45-13.738281-45-30s20.605469-30 45-30 45 13.738281 45 30-20.605469 30-45 30zm0 0" data-original="#000000" class="active-path" data-old_color="#000000" fill="#FF0000"/><path d="m330 181h30v30h-30zm0 0" data-original="#000000" class="active-path" data-old_color="#000000" fill="#FF0000"/><path d="m330 241h30v30h-30zm0 0" data-original="#000000" class="active-path" data-old_color="#000000" fill="#FF0000"/><path d="m330 301h30v30h-30zm0 0" data-original="#000000" class="active-path" data-old_color="#000000" fill="#FF0000"/></g> </svg>
