<?xml version="1.0"?>
<svg xmlns="http://www.w3.org/2000/svg" xmlns:xlink="http://www.w3.org/1999/xlink" xmlns:svgjs="http://svgjs.com/svgjs" version="1.1" width="512" height="512" x="0" y="0" viewBox="0 0 24 24" style="enable-background:new 0 0 512 512" xml:space="preserve" class=""><g><path xmlns="http://www.w3.org/2000/svg" d="m17 22c-2.757 0-5-2.243-5-5s2.243-5 5-5 5 2.243 5 5-2.243 5-5 5zm0-9c-2.206 0-4 1.794-4 4s1.794 4 4 4 4-1.794 4-4-1.794-4-4-4z" fill="#ff0000" data-original="#000000" style="" class=""/><path xmlns="http://www.w3.org/2000/svg" d="m23.5 24c-.128 0-.256-.049-.354-.146l-3.068-3.068c-.195-.195-.195-.512 0-.707s.512-.195.707 0l3.068 3.068c.195.195.195.512 0 .707-.097.097-.225.146-.353.146z" fill="#ff0000" data-original="#000000" style="" class=""/><path xmlns="http://www.w3.org/2000/svg" d="m3.5 24h-2c-.827 0-1.5-.673-1.5-1.5v-6c0-.827.673-1.5 1.5-1.5h2c.827 0 1.5.673 1.5 1.5v6c0 .827-.673 1.5-1.5 1.5zm-2-8c-.275 0-.5.224-.5.5v6c0 .276.225.5.5.5h2c.275 0 .5-.224.5-.5v-6c0-.276-.225-.5-.5-.5z" fill="#ff0000" data-original="#000000" style="" class=""/><path xmlns="http://www.w3.org/2000/svg" d="m9.5 24h-2c-.827 0-1.5-.673-1.5-1.5v-10c0-.827.673-1.5 1.5-1.5h2c.827 0 1.5.673 1.5 1.5v10c0 .827-.673 1.5-1.5 1.5zm-2-12c-.275 0-.5.224-.5.5v10c0 .276.225.5.5.5h2c.275 0 .5-.224.5-.5v-10c0-.276-.225-.5-.5-.5z" fill="#ff0000" data-original="#000000" style="" class=""/><path xmlns="http://www.w3.org/2000/svg" d="m12.5 11c-.276 0-.5-.224-.5-.5v-4c0-.827.673-1.5 1.5-1.5h2c.827 0 1.5.673 1.5 1.5v3c0 .276-.224.5-.5.5s-.5-.224-.5-.5v-3c0-.276-.225-.5-.5-.5h-2c-.275 0-.5.224-.5.5v4c0 .276-.224.5-.5.5z" fill="#ff0000" data-original="#000000" style="" class=""/><path xmlns="http://www.w3.org/2000/svg" d="m22.5 12c-.276 0-.5-.224-.5-.5v-10c0-.276-.225-.5-.5-.5h-2c-.275 0-.5.224-.5.5v8c0 .276-.224.5-.5.5s-.5-.224-.5-.5v-8c0-.827.673-1.5 1.5-1.5h2c.827 0 1.5.673 1.5 1.5v10c0 .276-.224.5-.5.5z" fill="#ff0000" data-original="#000000" style="" class=""/></g></svg>
